<svg width="40" height="40" xmlns="http://www.w3.org/2000/svg">
    <g>
        <path stroke="null" id="svg_1" d="m0,0l39.15099,0l0,40.68392l-39.15099,0l0,-40.68392z" opacity="undefined"
              fill="none"/>
        <g stroke="null" fill="none" fill-rule="evenodd" id="svg_2">
            <path stroke="null"
                  d="m32.22547,19.46865a8.88028,9.01922 0 0 0 -2.52999,-1.83212l0,-3.43553l-17.70996,0l0,12.84789l5.14854,0c0.1265,0.90706 0.38962,1.77301 0.76405,2.56958l-8.44259,0l0,-17.98704l22.76994,0l0,7.83721l0,0.00001z"
                  fill="#6E6E6E" id="svg_3"/>
            <path stroke="null"
                  d="m17.04551,21.90974l-10.11998,0l0,-12.84789l20.23996,0l0,12.84789l-25.29995,0l0,-17.98704l25.29995,0l0,17.98704l-10.11998,0z"
                  fill="#6E6E6E" id="svg_4"/>
            <path stroke="null"
                  d="m25.90048,32.18805a6.32499,6.42395 0 1 1 0,-12.84789a6.32499,6.42395 0 0 1 0,12.84789zm0,-2.56958a3.79499,3.85437 0 1 0 0,-7.70873a3.79499,3.85437 0 0 0 0,7.70873z"
                  fill="#389FD6" id="svg_5"/>
            <path stroke="null" fill="#389FD6"
                  d="m34.75546,37.32722l2.52999,-2.56958l-6.32499,-6.42395l-2.52999,2.56958l6.32499,6.42395z"
                  id="svg_6"/>
        </g>
    </g>

</svg>